<?xml version="1.0" encoding="UTF-8" standalone="no"?>
<!DOCTYPE svg PUBLIC "-//W3C//DTD SVG 1.1//EN" "http://www.w3.org/Graphics/SVG/1.1/DTD/svg11.dtd">
<svg width="100%" height="100%" viewBox="0 0 564 578" version="1.1" xmlns="http://www.w3.org/2000/svg" xmlns:xlink="http://www.w3.org/1999/xlink" xml:space="preserve" xmlns:serif="http://www.serif.com/" style="fill-rule:evenodd;clip-rule:evenodd;stroke-linecap:square;stroke-linejoin:round;stroke-miterlimit:1.5;">
    <g transform="matrix(3.21571,0,0,4.32186,1514.41,143.658)">
        <rect id="Amber" x="-470.942" y="-33.24" width="175.271" height="133.568" style="fill:none;"/>
        <g id="Amber1" serif:id="Amber">
            <g transform="matrix(1.92135,0,0,1.4296,-612.996,-329.735)">
                <g transform="matrix(1,0,0,1,-2.84217e-14,113.905)">
                    <g transform="matrix(1.07913,0,0,1.07397,-12.4854,-9.5312)">
                        <path d="M122.349,101.924L154.277,120.675L154.277,158.177L122.349,176.928L90.42,158.177L90.42,120.675L122.349,101.924Z" style="fill:rgb(41,42,71);"/>
                        <path d="M122.349,101.924L154.277,120.675L154.277,158.177L122.349,176.928L90.42,158.177L90.42,120.675L122.349,101.924ZM122.349,103.669L91.92,121.54C91.92,127.075 91.92,157.312 91.92,157.312L122.349,175.183L152.778,157.312L152.778,121.54L122.349,103.669Z" style="fill:rgb(205,180,130);"/>
                    </g>
                    <g transform="matrix(1,0,0,-1,0,280.021)">
                        <path d="M90.57,116.472L90.57,111.693L111.417,99.537C113.117,102.939 116.013,105.721 119.546,105.6" style="fill:none;stroke:rgb(205,180,130);stroke-width:1.62px;"/>
                        <g transform="matrix(-1,0,0,1,239.287,0)">
                            <path d="M90.57,116.587L90.57,111.877L111.613,99.537C113.313,102.939 116.149,105.7 119.741,105.6" style="fill:none;stroke:rgb(205,180,130);stroke-width:1.62px;"/>
                        </g>
                    </g>
                    <g>
                        <path d="M90.57,116.867L90.57,112.077L111.436,99.932C113.135,103.334 115.982,105.652 119.546,105.6" style="fill:none;stroke:rgb(205,180,130);stroke-width:1.62px;"/>
                        <g transform="matrix(-1,0,0,1,239.287,0)">
                            <path d="M90.57,116.867L90.57,112.224L111.603,99.932C113.303,103.334 115.964,105.637 119.546,105.6" style="fill:none;stroke:rgb(205,180,130);stroke-width:1.62px;"/>
                        </g>
                    </g>
                </g>
                <g transform="matrix(0.280507,1.04546e-33,0,-0.280507,94.0019,283.38)">
                    <path d="M82.578,6.05L74.398,12.156L64.625,21.988C54.422,32.245 48.227,39.792 40.355,51.546L35.68,58.527L41.805,66.734C45.176,71.249 48.148,74.933 48.418,74.921C48.684,74.906 50.859,71.617 53.254,67.609C55.648,63.597 58.516,59.226 59.629,57.886L61.648,55.456L66.898,59.941C69.789,62.406 72.363,64.343 72.625,64.245C72.887,64.148 75.875,60.917 79.266,57.062L85.438,50.054L84.793,49.511C84.441,49.214 81.883,47.019 79.109,44.636L74.07,40.3L76.316,37.503C78.93,34.253 90.289,23.945 91.258,23.945C91.621,23.945 95.676,27.546 100.273,31.949L108.625,39.952L105.012,42.972C97.715,49.074 84.215,62.773 78.312,70.07C74.973,74.195 69.586,81.62 66.336,86.57L60.426,95.57L48.613,119.57L45.242,128.98C39.957,143.757 34.273,167.429 34.273,174.687L34.273,176.671L62.07,192.648C77.355,201.437 90.312,208.667 90.859,208.722C91.41,208.777 104.551,201.562 120.062,192.695L148.262,176.57L147.816,173.195C143.664,141.64 130.797,108.066 112.812,81.87L109.074,76.425L107.922,77.37C107.285,77.894 104.301,81.273 101.289,84.886L95.816,91.452L99.836,97.636C111.012,114.816 119.988,136.124 125.059,157.523L126.77,164.73L125.941,166.878L91.02,186.894C91.02,186.894 81.141,181.14 71.961,175.878C62.785,170.613 55.273,166.019 55.273,165.671C55.273,164.242 57.766,154.277 60.141,146.195C70.086,112.378 90.926,79.921 115.934,59.292L120.719,55.347L123.297,58.956C124.715,60.945 127.582,65.355 129.676,68.757C131.766,72.16 133.684,74.933 133.938,74.917C134.523,74.882 145.059,60.628 145.664,59.05L146.117,57.87L141.117,50.468C134.004,39.941 125.867,30.05 116.773,20.87L108.898,12.925L100.145,6.433C95.332,2.863 91.25,-0.055 91.074,-0.055C90.898,-0.055 87.078,2.691 82.578,6.05ZM39.734,30.62C32.137,33.784 20.988,39.882 15.148,44.07C9.195,48.339 1.273,54.933 1.273,55.62C1.273,57.964 24.863,90.171 38.586,106.562L43.395,112.304L48.133,102.843L52.875,93.382L45.949,84.726C38.539,75.456 26.773,59.531 26.773,58.761C26.773,57.745 37.965,41.183 43.07,34.64L48.488,27.695L47.57,27.718C47.062,27.726 43.539,29.034 39.734,30.617L39.734,30.62ZM135.273,29.48C141.082,37.019 148.742,47.82 151.879,52.882L155.637,58.945L149.934,66.757C146.797,71.054 140.922,78.722 136.879,83.8C132.836,88.874 129.523,93.202 129.523,93.41C129.523,93.62 131.602,97.96 134.137,103.054L138.746,112.316L145.117,104.691C152.688,95.632 168.449,74.695 175.934,63.753L181.281,55.941L179.965,54.484C173.395,47.21 152.812,34.499 139.445,29.464C133.648,27.281 133.582,27.281 135.273,29.48ZM15.645,99.507C9.703,114.921 4.336,133.679 1.379,149.382L0,156.695L0.824,157.351C1.277,157.71 7.25,161.202 14.094,165.113L26.539,172.226L28.137,163.023C29.016,157.96 29.828,153.41 29.941,152.906L30.148,151.995L21.648,146.949L24.219,137.011C25.633,131.542 27.992,123.449 29.461,119.027L32.137,110.984L25.227,102.339C21.426,97.585 18.219,93.695 18.102,93.695C17.98,93.695 16.875,96.308 15.645,99.507ZM156.863,102.417L150.078,110.96L152.609,118.531C154.992,125.671 160.258,144.941 160.266,146.57C160.27,146.98 158.391,148.331 156.098,149.57L151.922,151.82L152.316,153.695C152.535,154.726 153.316,159.195 154.055,163.632L155.398,171.691L156,171.695C156.332,171.695 162.344,168.402 169.363,164.382L182.125,157.07L181.668,154.07C180.801,148.347 176.848,131.523 174.266,122.57C171.512,113.027 164.953,94.628 164.137,94.156C163.867,94.003 160.598,97.722 156.863,102.417ZM76.047,125.327C75.078,127.523 73.328,131.777 72.156,134.777L70.023,140.238L72.586,142.902C75.734,146.179 89.641,158.476 90.578,158.816C91.453,159.132 93.523,157.492 103.785,148.347L112.172,140.874L110.812,136.925C109.453,132.976 104.863,122.117 104.285,121.484C104.117,121.3 101.137,123.976 97.66,127.433L91.344,133.718L84.574,127.527L77.801,121.339L76.047,125.327Z" style="fill:rgb(244,180,0);fill-rule:nonzero;"/>
                </g>
            </g>
        </g>
    </g>
</svg>
