<?xml version="1.0" encoding="UTF-8" standalone="no"?>
<!DOCTYPE svg PUBLIC "-//W3C//DTD SVG 1.1//EN" "http://www.w3.org/Graphics/SVG/1.1/DTD/svg11.dtd">
<svg width="100%" height="100%" viewBox="0 0 565 578" version="1.1" xmlns="http://www.w3.org/2000/svg" xmlns:xlink="http://www.w3.org/1999/xlink" xml:space="preserve" xmlns:serif="http://www.serif.com/" style="fill-rule:evenodd;clip-rule:evenodd;stroke-linecap:square;stroke-linejoin:round;stroke-miterlimit:1.5;">
    <g transform="matrix(1,0,0,1,-619,0)">
        <g transform="matrix(3.21571,0,0,4.32186,2133.84,143.658)">
            <rect id="Amethyst" x="-470.942" y="-33.24" width="175.271" height="133.568" style="fill:none;"/>
            <g id="Amethyst1" serif:id="Amethyst">
                <g transform="matrix(1.92135,0,0,1.4296,-858.04,-329.735)">
                    <g transform="matrix(1,0,0,1,127.537,113.905)">
                        <g transform="matrix(1.07913,0,0,1.07397,-12.4854,-9.5312)">
                            <path d="M122.349,101.924L154.277,120.675L154.277,158.177L122.349,176.928L90.42,158.177L90.42,120.675L122.349,101.924Z" style="fill:rgb(41,42,71);"/>
                            <path d="M122.349,101.924L154.277,120.675L154.277,158.177L122.349,176.928L90.42,158.177L90.42,120.675L122.349,101.924ZM122.349,103.669L91.92,121.54L91.92,157.312L122.349,175.183L152.778,157.312L152.778,121.54L122.349,103.669Z" style="fill:rgb(205,180,130);"/>
                        </g>
                        <g transform="matrix(1,0,0,-1,0,280.021)">
                            <path d="M90.57,116.472L90.57,111.693L111.417,99.537C113.117,102.939 116.013,105.721 119.546,105.6" style="fill:none;stroke:rgb(205,180,130);stroke-width:1.62px;"/>
                            <g transform="matrix(-1,0,0,1,239.287,0)">
                                <path d="M90.57,116.587L90.57,111.877L111.613,99.537C113.313,102.939 116.149,105.7 119.741,105.6" style="fill:none;stroke:rgb(205,180,130);stroke-width:1.62px;"/>
                            </g>
                        </g>
                        <g>
                            <path d="M90.57,116.867L90.57,112.077L111.436,99.932C113.135,103.334 115.982,105.652 119.546,105.6" style="fill:none;stroke:rgb(205,180,130);stroke-width:1.62px;"/>
                            <g transform="matrix(-1,0,0,1,239.287,0)">
                                <path d="M90.57,116.867L90.57,112.224L111.603,99.932C113.303,103.334 115.964,105.637 119.546,105.6" style="fill:none;stroke:rgb(205,180,130);stroke-width:1.62px;"/>
                            </g>
                        </g>
                    </g>
                    <g transform="matrix(0.303555,3.82237e-33,0,-0.303555,219.305,283.395)">
                        <path d="M78.148,0.719C74.496,1.586 74.543,1.988 78.355,2.563L81.777,3.074L83.828,4.856L85.875,6.637L85.047,7.992L84.219,9.344L82.047,9.864C80.852,10.149 75.871,11.094 70.977,11.961L62.078,13.539L54.852,15.856C45.684,18.789 36.898,22.844 29.879,27.375L24.375,30.93L18.285,37.016L12.199,43.106L8.059,49.481C4.238,55.356 0,64.051 0,66.004C0,66.457 1.965,64.36 4.371,61.34C15.398,47.496 31.328,36.832 49.5,31.129L55.875,29.129L71.625,26.793L78.574,27.645L85.527,28.492L92.449,30.758C96.258,32.004 100.895,33.844 102.75,34.844L106.125,36.66L104.773,36.696C103.059,36.738 99,38.817 99,39.653L99,40.289L101.852,40.742C103.418,40.992 106.77,42.235 109.305,43.5L113.906,45.801L116.312,48.539C117.633,50.047 119.383,52.785 120.195,54.625L121.676,57.969L121.73,61.477L121.781,64.981L120.289,67.539C119.465,68.949 117.738,70.809 116.449,71.68L114.105,73.258L110.227,73.719L106.348,74.176L102.984,76.149L99.625,78.117L100.531,76.36C101.031,75.395 102.137,73.836 102.992,72.895L104.551,71.188L103.629,67.742C102.324,62.864 99.496,57.215 96.203,52.903L93.375,49.203L88.656,45.977L83.941,42.754L78.633,41.145L73.328,39.531L66.777,39.906L60.227,40.278L57.578,41.762L60.477,42.235C62.07,42.496 64.473,43.387 65.812,44.207L68.25,45.707L68.25,47.625L57.188,47.649L46.125,47.668L34.125,51.676L29.781,54.293C21.391,59.344 14.547,66.465 10.453,74.41C8.207,78.77 5.98,86.016 6.023,88.824L6.047,90.356L7.688,88.106C11.055,83.477 16.5,79.383 16.5,81.473C16.5,81.742 14.66,85.707 12.41,90.285C7.66,99.949 5.629,105.899 4.102,114.641L3,120.926L3,127.098C3,134.297 3.793,139.051 5.949,144.754L7.496,148.856L11.309,153.918C13.406,156.699 15.414,158.981 15.773,158.981L16.422,158.981L15.297,156.281L14.172,153.586L14.398,150.469L14.625,147.356L18.273,147.356L22.32,152.231C24.543,154.91 29.707,160.512 33.793,164.676L41.219,172.25L54.375,181.688L61.875,185.285L69.375,188.879L82.125,192.16L99.539,192.926L104.52,192.391L109.5,191.86L109.5,190.481L106.926,190.481C105.508,190.481 101.879,189.965 98.863,189.34C79.082,185.227 59.949,173.789 46.504,158.039L41.227,151.856L34.57,138.356L33.055,132.297C32.219,128.965 31.305,123.762 31.023,120.731L30.512,115.219L33.141,117.223C34.586,118.328 36.125,119.231 36.559,119.231L37.355,119.231L35.191,112.106L35.168,106.887L35.145,101.672L37.641,96.762L40.137,91.856L47.418,86.981L54.074,86.981L56.102,88.055C57.215,88.645 59.539,90.793 61.266,92.828L64.41,96.528L67.641,98.196L70.875,99.867L60.812,99.039L57.375,102.946L53.941,106.856L51.426,111.86L48.906,116.867L47.949,122.211L46.996,127.559L47.824,132.895L48.648,138.235L51.277,143.543L53.906,148.856L59.422,154.106L58.777,152.231C58.426,151.199 58.133,148.496 58.129,146.231L58.125,142.106L60.281,142.106L61.828,145.922C68.496,162.395 82.434,173.738 100.508,177.399L106.809,178.676L118.27,177.793L122.699,176.129L127.125,174.465L124.875,173.922C123.637,173.621 121.418,173.168 119.941,172.918C118.469,172.664 116.613,171.965 115.816,171.36L114.375,170.258L115.371,169.602L116.363,168.946L125.121,168.512L133.875,168.082L141.375,166.176L148.875,164.266L166.125,155.75L171.438,150.426L176.75,145.106L179.098,140.231C180.387,137.547 181.656,134.34 181.914,133.106L182.387,130.856L180.379,133.305C178.301,135.84 174.906,137.981 172.965,137.981L171.852,137.981L171.391,136.524L170.93,135.071L174.375,125.567C176.27,120.34 178.637,112.641 179.641,108.457L181.461,100.856L182.238,92.469L183.02,84.082L182.207,76.813L181.398,69.539L179.543,63.071L177.691,56.606L171.012,43.106L167.156,38.231L163.305,33.356L163.715,34.856C163.941,35.68 165.34,39.66 166.816,43.703L169.508,51.055L170.629,57.492L171.75,63.926L171.734,72.266C171.703,90.574 167.312,107.289 159.418,119.168L156.047,124.235L150.188,129.832C146.965,132.91 142.684,136.563 140.676,137.946L137.023,140.457L138.031,134.137L137.109,132.645L133.055,136.477L129.004,140.313L125.625,141.805C123.77,142.629 120.582,143.496 118.543,143.738L114.836,144.176L111.23,143.274L107.625,142.367L105.109,140.449L102.59,138.531L101.547,136.028C100.973,134.653 100.5,132.488 100.5,131.215L100.5,128.903L101.699,126.59L102.895,124.274L103.461,119.313L104.023,114.356L107.5,122.114L110.859,122.961C112.707,123.426 116.281,123.992 118.797,124.223L123.375,124.641L127.875,123.817L132.375,122.988L137.812,120.321L143.246,117.649L146.996,113.84L150.746,110.028L153.375,104.778C154.82,101.891 155.992,98.813 155.984,97.942L155.969,96.356L154.648,98.071C153.922,99.012 152.324,100.446 151.102,101.25L148.875,102.719L147.188,102.723C146.262,102.727 145.5,102.469 145.5,102.149C145.5,101.824 146.902,99.715 148.613,97.461C152.496,92.344 156.391,84.078 157.859,77.852L158.977,73.106L158.977,66.731L158.973,60.356L156.777,49.856L153.641,43.481L150.5,37.106L145.82,32.418C143.246,29.84 140.766,27.731 140.305,27.731L139.469,27.731L141,30.727C141.84,32.375 142.738,35.246 142.992,37.102L143.453,40.481L141.375,40.449L137.273,33.903L133.176,27.356L126.527,20.469L119.883,13.586L114.332,9.75C108.066,5.418 102.191,2.543 96.496,1.028L92.625,0L86.625,0.067C83.324,0.102 79.512,0.399 78.148,0.719Z" style="fill:rgb(129,55,123);fill-rule:nonzero;"/>
                    </g>
                </g>
            </g>
        </g>
    </g>
</svg>
