<?xml version="1.0" encoding="UTF-8" standalone="no"?>
<!DOCTYPE svg PUBLIC "-//W3C//DTD SVG 1.1//EN" "http://www.w3.org/Graphics/SVG/1.1/DTD/svg11.dtd">
<svg width="100%" height="100%" viewBox="0 0 565 578" version="1.1" xmlns="http://www.w3.org/2000/svg" xmlns:xlink="http://www.w3.org/1999/xlink" xml:space="preserve" xmlns:serif="http://www.serif.com/" style="fill-rule:evenodd;clip-rule:evenodd;stroke-linecap:square;stroke-linejoin:round;stroke-miterlimit:1.5;">
    <g transform="matrix(1,0,0,1,-1251,0)">
        <g transform="matrix(3.21571,0,0,4.32186,2765.84,143.658)">
            <rect id="Emerald" x="-470.942" y="-33.24" width="175.271" height="133.568" style="fill:none;"/>
            <g id="Emerald1" serif:id="Emerald">
                <g transform="matrix(1.92135,0,0,1.4296,-612.996,-166.896)">
                    <g>
                        <g transform="matrix(1.07913,0,0,1.07397,-12.4854,-9.5312)">
                            <path d="M122.349,101.924L154.277,120.675L154.277,158.177L122.349,176.928L90.42,158.177L90.42,120.675L122.349,101.924Z" style="fill:rgb(41,42,71);"/>
                            <path d="M122.349,101.924L154.277,120.675L154.277,158.177L122.349,176.928L90.42,158.177L90.42,120.675L122.349,101.924ZM122.349,103.669L91.92,121.54L91.92,157.312L122.349,175.183L152.778,157.312C152.778,151.777 152.778,121.54 152.778,121.54L122.349,103.669Z" style="fill:rgb(205,180,130);"/>
                        </g>
                        <g transform="matrix(1,0,0,-1,0,280.021)">
                            <path d="M90.57,116.472L90.57,111.693L111.417,99.537C113.117,102.939 116.013,105.721 119.546,105.6" style="fill:none;stroke:rgb(205,180,130);stroke-width:1.62px;"/>
                            <g transform="matrix(-1,0,0,1,239.287,0)">
                                <path d="M90.57,116.587L90.57,111.877L111.613,99.537C113.313,102.939 116.149,105.7 119.741,105.6" style="fill:none;stroke:rgb(205,180,130);stroke-width:1.62px;"/>
                            </g>
                        </g>
                        <g>
                            <path d="M90.57,116.867L90.57,112.077L111.436,99.932C113.135,103.334 115.982,105.652 119.546,105.6" style="fill:none;stroke:rgb(205,180,130);stroke-width:1.62px;"/>
                            <g transform="matrix(-1,0,0,1,239.287,0)">
                                <path d="M90.57,116.867L90.57,112.224L111.603,99.932C113.303,103.334 115.964,105.637 119.546,105.6" style="fill:none;stroke:rgb(205,180,130);stroke-width:1.62px;"/>
                            </g>
                        </g>
                    </g>
                    <g transform="matrix(0.942198,0,0,0.942198,6.75249,8.77032)">
                        <path d="M117.898,148.613C117.857,148.509 117.814,148.408 117.77,148.309C115.361,145.764 112.59,143.937 110.489,143.112C108.135,141.169 105.951,140.187 103.842,139.99C101.338,139.756 98.909,140.617 96.381,142.45C94.97,143.474 93.52,144.807 91.994,146.414L92.074,135.199C95.23,131.393 100.032,129.858 105.271,130.188C112.599,135.658 116.283,141.15 117.898,148.613ZM109.209,130.767C111.015,131.178 112.836,131.788 114.628,132.582C119.37,136.732 124.167,142.393 127.87,147.83C131.342,152.927 136.028,156.399 143.919,157.239L120.624,171.097C121.786,150.598 120.4,140.318 109.209,130.767ZM118.655,170.501L107.06,164.133C107.037,164.111 107.012,164.09 106.985,164.07C101.861,160.232 100.939,153.533 102.625,149.452C103.228,147.992 104.163,146.87 105.413,146.476C105.77,146.364 106.15,146.314 106.551,146.331C106.532,147.809 106.775,149.416 107.207,150.507C109.146,155.405 112.744,157.385 118.816,156.934C118.816,156.424 118.813,155.927 118.806,155.443C119.09,159.766 118.976,164.706 118.655,170.501ZM107.221,143.232C107.03,143.52 106.882,143.9 106.775,144.339C106.079,144.292 105.422,144.376 104.812,144.569C103.045,145.126 101.63,146.623 100.776,148.689C99.365,152.106 99.502,157.113 101.921,161.31L91.927,155.821L91.973,149.397C93.953,147.162 95.783,145.355 97.555,144.069C99.63,142.564 101.601,141.789 103.656,141.981C104.815,142.089 105.992,142.502 107.221,143.232ZM121.882,136.978C123.191,138.014 124.438,139.156 125.599,140.396C127.396,142.315 130.38,143.534 132.751,143.698C136.548,146.475 141.705,147.03 147.535,144.87L147.51,155.102L146.969,155.424C138.077,155.219 133.087,151.936 129.523,146.704C127.286,143.42 124.659,140.057 121.882,136.978ZM135.639,143.092C135.886,142.902 136.078,142.666 136.201,142.383C138.358,137.417 137.65,131.553 134.239,127.895C139.119,129.672 143.462,133.581 147.548,139.722L147.541,142.722C142.998,144.566 138.891,144.633 135.639,143.092ZM129.049,124.814C127.858,124.494 126.543,124.335 125.104,124.369L131.923,118.141C139.272,120.538 144.502,126.425 147.432,136.097C141.965,128.845 135.978,125.206 129.049,124.814Z" style="fill:rgb(41,138,52);"/>
                        <g transform="matrix(1,0,0,1,0.598282,-0.00215037)">
                            <path d="M119,108.049C116.985,111.987 114.698,115.257 110.461,116.969C115.326,120.285 117.496,125.435 119,130.726C120.393,125.927 122.287,120.583 127.434,117.185C123.516,114.908 121.361,111.903 119,108.049Z" style="fill:rgb(41,138,52);"/>
                        </g>
                    </g>
                </g>
            </g>
        </g>
    </g>
</svg>
