<?xml version="1.0" encoding="UTF-8" standalone="no"?>
<!DOCTYPE svg PUBLIC "-//W3C//DTD SVG 1.1//EN" "http://www.w3.org/Graphics/SVG/1.1/DTD/svg11.dtd">
<svg width="100%" height="100%" viewBox="0 0 564 578" version="1.1" xmlns="http://www.w3.org/2000/svg" xmlns:xlink="http://www.w3.org/1999/xlink" xml:space="preserve" xmlns:serif="http://www.serif.com/" style="fill-rule:evenodd;clip-rule:evenodd;stroke-linecap:square;stroke-linejoin:round;stroke-miterlimit:1.5;">
    <g transform="matrix(1,0,0,1,-1874,0)">
        <g transform="matrix(3.21571,0,0,4.32186,3388.43,143.658)">
            <rect id="Ruby" x="-470.942" y="-33.24" width="175.271" height="133.568" style="fill:none;"/>
            <g id="Ruby1" serif:id="Ruby">
                <g transform="matrix(1.92135,0,0,1.4296,-1098.02,-166.896)">
                    <g transform="matrix(1,0,0,1,253.453,0)">
                        <g transform="matrix(1.07913,0,0,1.07397,-12.4854,-9.5312)">
                            <path d="M122.349,101.924L154.277,120.675L154.277,158.177L122.349,176.928L90.42,158.177L90.42,120.675L122.349,101.924Z" style="fill:rgb(41,42,71);"/>
                            <path d="M122.349,101.924L154.277,120.675L154.277,158.177L122.349,176.928L90.42,158.177L90.42,120.675L122.349,101.924ZM122.349,103.669L91.92,121.54C91.92,121.54 91.92,157.312 91.92,157.312L122.349,175.183L152.778,157.312C152.778,152.258 152.778,126.594 152.778,121.54L122.349,103.669Z" style="fill:rgb(205,180,130);"/>
                        </g>
                        <g transform="matrix(1,0,0,-1,0,280.021)">
                            <path d="M90.57,116.472L90.57,111.693L111.417,99.537C113.117,102.939 116.013,105.721 119.546,105.6" style="fill:none;stroke:rgb(205,180,130);stroke-width:1.62px;"/>
                            <g transform="matrix(-1,0,0,1,239.287,0)">
                                <path d="M90.57,116.587L90.57,111.877L111.613,99.537C113.313,102.939 116.149,105.7 119.741,105.6" style="fill:none;stroke:rgb(205,180,130);stroke-width:1.62px;"/>
                            </g>
                        </g>
                        <g>
                            <path d="M90.57,116.867L90.57,112.077L111.436,99.932C113.135,103.334 115.982,105.652 119.546,105.6" style="fill:none;stroke:rgb(205,180,130);stroke-width:1.62px;"/>
                            <g transform="matrix(-1,0,0,1,239.287,0)">
                                <path d="M90.57,116.867L90.57,112.224L111.603,99.932C113.303,103.334 115.964,105.637 119.546,105.6" style="fill:none;stroke:rgb(205,180,130);stroke-width:1.62px;"/>
                            </g>
                        </g>
                    </g>
                    <g transform="matrix(0.282545,6.13016e-35,0,-0.282545,345.301,169.844)">
                        <path d="M97.73,0C97.73,0 103.695,5.379 108.23,9.234C133.531,30.75 154.113,56.765 167.312,83.918L170.594,92.168C170.594,92.168 150.209,92.908 140.031,92.453C112.399,91.219 58.844,75.996 11.566,53.472C5.426,50.547 0.227,48.152 0.008,48.152C-0.207,48.152 3.637,50.91 8.551,54.281C60.883,90.176 101.199,131.152 119.785,167.336L124.266,176.054C107.897,177.097 91.109,176.928 73.73,175.047C54.379,172.226 35.484,167.48 17.941,161.031C12.832,159.148 8.535,157.726 8.398,157.863C8.262,158 28.137,169.73 52.566,183.929L98.032,210.942L144.426,183.976L188.867,158.176L188.676,105.301L188.48,52.426L146.105,27.754C122.801,14.183 102.383,2.39 100.73,1.543L97.73,0ZM91.613,22.625C98.738,30.082 103.68,36.711 106.457,42.527L108.605,47.027L108.605,53.172L105.957,55.57L98.48,57.281L92.48,56.785C74.773,55.328 50.719,48.152 32.086,38.769C29.125,37.277 26.551,36.211 26.363,36.398C25.781,36.98 38.715,44.261 51.23,50.39C73.914,61.496 98.52,71.297 113.219,75.082L121.73,77.273L131.48,78.426C136.844,79.058 143.004,79.746 145.168,79.953L149.105,80.332L149.105,79.648C149.105,78.676 141.543,67.687 136.52,61.363C130.09,53.261 118.215,41.297 108.605,33.23C100.477,26.406 87.398,16.652 86.375,16.652C86.117,16.652 88.477,19.34 91.613,22.625ZM3.605,76.898C3.605,77.109 6.391,79.219 9.793,81.59C30.359,95.914 52.266,118.406 57.496,130.562L59.191,134.504L58.73,139.879L56.613,141.453L54.492,143.027L43.863,142.965L33.23,142.898L24.605,140.617C19.863,139.363 15.883,138.426 15.758,138.531C14.785,139.379 43.348,150.972 54.668,154.328C69.625,158.758 91.531,162.531 99.223,162.008L102.555,161.777L95.645,152.086L88.73,142.394L81.23,134.519C69.008,121.679 46.293,103.535 24.23,88.972C13.98,82.207 3.605,76.133 3.605,76.898Z" style="fill:rgb(211,10,46);fill-rule:nonzero;"/>
                    </g>
                </g>
            </g>
        </g>
    </g>
</svg>
