<?xml version="1.0" encoding="UTF-8" standalone="no"?>
<!DOCTYPE svg PUBLIC "-//W3C//DTD SVG 1.1//EN" "http://www.w3.org/Graphics/SVG/1.1/DTD/svg11.dtd">
<svg width="100%" height="100%" viewBox="0 0 564 578" version="1.1" xmlns="http://www.w3.org/2000/svg" xmlns:xlink="http://www.w3.org/1999/xlink" xml:space="preserve" xmlns:serif="http://www.serif.com/" style="fill-rule:evenodd;clip-rule:evenodd;stroke-linecap:square;stroke-linejoin:round;stroke-miterlimit:1.5;">
    <g transform="matrix(1,0,0,1,-2524,0)">
        <g transform="matrix(3.21571,0,0,4.32186,4038.52,143.658)">
            <rect id="Sapphire" x="-470.942" y="-33.24" width="175.271" height="133.568" style="fill:none;"/>
            <g id="Sapphire1" serif:id="Sapphire">
                <g transform="matrix(1.92135,0,0,1.4296,-1099.97,-329.735)">
                    <g transform="matrix(1,0,0,1,253.453,113.905)">
                        <g transform="matrix(1.07913,0,0,1.07397,-12.4854,-9.5312)">
                            <path d="M122.349,101.924L154.277,120.675L154.277,158.177L122.349,176.928L90.42,158.177L90.42,120.675L122.349,101.924Z" style="fill:rgb(41,42,71);"/>
                            <path d="M122.349,101.924L154.277,120.675L154.277,158.177L122.349,176.928L90.42,158.177L90.42,120.675L122.349,101.924ZM122.349,103.669L91.92,121.54L91.92,157.312L122.349,175.183L152.778,157.312C152.778,157.312 152.778,121.54 152.778,121.54L122.349,103.669Z" style="fill:rgb(205,180,130);"/>
                        </g>
                        <g transform="matrix(1,0,0,-1,0,280.021)">
                            <path d="M90.57,116.472L90.57,111.693L111.417,99.537C113.117,102.939 116.013,105.721 119.546,105.6" style="fill:none;stroke:rgb(205,180,130);stroke-width:1.62px;"/>
                            <g transform="matrix(-1,0,0,1,239.287,0)">
                                <path d="M90.57,116.587L90.57,111.877L111.613,99.537C113.313,102.939 116.149,105.7 119.741,105.6" style="fill:none;stroke:rgb(205,180,130);stroke-width:1.62px;"/>
                            </g>
                        </g>
                        <g>
                            <path d="M90.57,116.867L90.57,112.077L111.436,99.932C113.135,103.334 115.982,105.652 119.546,105.6" style="fill:none;stroke:rgb(205,180,130);stroke-width:1.62px;"/>
                            <g transform="matrix(-1,0,0,1,239.287,0)">
                                <path d="M90.57,116.867L90.57,112.224L111.603,99.932C113.303,103.334 115.964,105.637 119.546,105.6" style="fill:none;stroke:rgb(205,180,130);stroke-width:1.62px;"/>
                            </g>
                        </g>
                    </g>
                    <g transform="matrix(0.28554,-8.45391e-34,0,-0.28554,346.74,284.092)">
                        <path d="M78.211,16.442C70.598,25.446 64.25,33.18 64.098,33.629L63.828,34.446L67.062,35.293C70.535,36.2 86.059,41.348 89.848,42.844L92.145,43.754L99.973,40.7C104.277,39.02 110.668,36.918 114.172,36.024C117.68,35.133 120.668,34.285 120.812,34.141C121.047,33.907 92.586,0 92.199,0.051C92.117,0.063 85.82,7.438 78.211,16.442ZM28.355,39.825C16.152,41.868 6.949,48.071 3.004,56.903L1.441,60.407L0.762,74.664L2.77,80.66C4.75,86.594 8.582,94.211 11.227,97.473L12.594,99.16L18.098,93.063L23.602,86.969L21.578,82.465L19.559,77.961L19.148,73.977L18.734,69.996L19.645,67.242C20.145,65.731 21.41,63.473 22.461,62.223L24.367,59.957L27.859,58.188L31.348,56.418L36.07,55.489L40.797,54.563L56.047,55.485L64.586,57.758C69.281,59.008 73.32,60.032 73.562,60.032C73.805,60.032 70.301,62.25 65.773,64.961C49.562,74.684 37.789,83.973 25.207,96.961L16.863,105.575L11.543,113.633L6.223,121.688L3.996,127.461C2.77,130.637 1.371,135.52 0.883,138.313L0,143.391L0.895,148.024L1.793,152.657L3.566,155.719C4.543,157.403 6.754,160.059 8.48,161.618L11.617,164.453L15.457,166.207C17.57,167.172 21.324,168.5 23.797,169.16L28.297,170.36L36.629,170.801L44.957,171.242L52.379,170.317C60.184,169.344 74.672,165.895 79.469,163.871L82.297,162.676L62.797,152.957L52.297,154.754L44.758,154.739L37.215,154.723L33.086,153.524L28.953,152.321L25.832,150.063L22.715,147.801L21.105,144.649L19.496,141.492L19.836,136.2L20.18,130.907L21.84,127.157C22.754,125.094 24.352,121.961 25.387,120.192L27.27,116.977L33.41,122.52C57.68,144.422 92.844,161.946 126.352,168.832L134.047,170.414L142.691,170.825L151.332,171.239L157.691,169.95L164.047,168.664L174.25,163.305L176.93,160.231C178.402,158.543 180.488,155.301 181.566,153.032L183.52,148.907L183.551,134.657L181.762,129.203L179.977,123.75L176.465,117.625C174.535,114.258 172.641,111.442 172.254,111.368C171.867,111.297 169.078,113.852 166.059,117.051L160.566,122.868L162.5,126.684C163.562,128.782 164.801,132.207 165.246,134.293L166.062,138.09L164.227,145.731L158.598,151.36L154.199,153.118L149.801,154.871L139.301,154.852L128.801,154.828L122.801,153.211C119.5,152.321 115.449,151.121 113.801,150.547L110.801,149.504L114.695,147.528C121.059,144.297 138.023,132.621 145.676,126.203C159.023,115.004 169.75,102.727 176.559,90.848L179.801,85.196L181.848,79.18L183.895,73.16L183.926,61.59L182.383,57.457L180.836,53.328L174.148,46.446L168.723,43.887L163.301,41.325L149.051,38.856L131.051,39.676L123.348,41.246C114.996,42.953 103.957,46.223 103.375,47.168L103.008,47.758L112.32,52.453L121.629,57.153L127.152,56.258L132.676,55.368L141.613,55.676L150.551,55.981L154.484,57.723L158.414,59.465L161,62.328L163.59,65.192L164.477,68.16L165.367,71.133L164.84,75.375L164.309,79.618L160.949,86.325C159.102,90.016 157.344,93.035 157.039,93.035C156.738,93.035 154.984,91.489 153.145,89.598C151.305,87.711 146.934,83.871 143.426,81.071C118.297,61 81.645,44.684 51.551,40.168L44.051,39.043L38.051,39.125C34.75,39.172 30.391,39.489 28.359,39.828L28.355,39.825ZM83.414,78.969C83.395,82.539 81.41,90.375 79.645,93.836C77.742,97.567 73.168,102.215 70.035,103.602C68.738,104.176 67.68,104.817 67.684,105.028C67.691,105.235 69.391,106.34 71.461,107.481L75.223,109.559L78.148,114.078L81.07,118.602L82.246,123.778C82.895,126.621 83.422,129.981 83.422,131.242L83.422,133.532L81.977,133.532C81.184,133.532 77.848,132.582 74.57,131.422L68.605,129.309L63.453,126.223C57.801,122.84 48.809,115.782 41.797,109.235L37.297,105.032L41.422,101.242C48.344,94.883 57.262,87.871 63.016,84.262L68.484,80.836L74.641,78.692C78.027,77.516 81.391,76.547 82.109,76.539L83.422,76.528L83.414,78.969ZM111.312,79.153C120.941,83.067 131.953,90.719 143.043,101.207L147.285,105.219L146.668,105.774C137.543,113.981 134.453,116.582 128.797,120.817C120.879,126.746 113.355,130.672 105.977,132.715L100.672,134.184L100.699,133.293C100.715,132.805 101.18,129.852 101.738,126.727L102.75,121.051L104.734,116.856L106.719,112.664L109.773,109.903C111.457,108.383 113.805,106.731 114.992,106.231L117.156,105.325L113.242,102.739L109.328,100.157L106.883,96.918L104.434,93.68L102.98,88.668C102.18,85.91 101.305,82.004 101.035,79.989L100.551,76.321L103.672,76.817C105.387,77.094 108.828,78.145 111.312,79.153ZM84.219,169.532C80.324,171.129 74.148,173.172 70.5,174.075L63.859,175.715L64.129,176.52C64.277,176.965 70.602,184.664 78.188,193.629L91.98,209.93L92.547,209.578C93.273,209.129 120.48,177.086 120.75,176.36C120.863,176.063 118.16,175.028 114.75,174.063C111.34,173.098 105.043,171.008 100.758,169.418C96.477,167.828 92.594,166.551 92.133,166.582C91.676,166.61 88.113,167.938 84.219,169.532Z" style="fill:rgb(0,137,195);fill-rule:nonzero;"/>
                    </g>
                </g>
            </g>
        </g>
    </g>
</svg>
