<?xml version="1.0" encoding="UTF-8" standalone="no"?>
<!DOCTYPE svg PUBLIC "-//W3C//DTD SVG 1.1//EN" "http://www.w3.org/Graphics/SVG/1.1/DTD/svg11.dtd">
<svg width="100%" height="100%" viewBox="0 0 565 578" version="1.1" xmlns="http://www.w3.org/2000/svg" xmlns:xlink="http://www.w3.org/1999/xlink" xml:space="preserve" xmlns:serif="http://www.serif.com/" style="fill-rule:evenodd;clip-rule:evenodd;stroke-linecap:square;stroke-linejoin:round;stroke-miterlimit:1.5;">
    <g transform="matrix(1,0,0,1,-3168,0)">
        <g transform="matrix(3.21571,0,0,4.32186,4683.34,143.658)">
            <rect id="Steel" x="-470.942" y="-33.24" width="175.271" height="133.568" style="fill:none;"/>
            <g id="Steel1" serif:id="Steel">
                <g transform="matrix(1.92135,0,0,1.4296,-858.04,-166.582)">
                    <g transform="matrix(1,0,0,1,127.537,-0.220227)">
                        <g transform="matrix(1.07913,0,0,1.07397,-12.4854,-9.5312)">
                            <path d="M122.349,101.924L154.277,120.675L154.277,158.177L122.349,176.928L90.42,158.177L90.42,120.675L122.349,101.924Z" style="fill:rgb(41,42,71);"/>
                            <path d="M122.349,101.924L154.277,120.675L154.277,158.177L122.349,176.928L90.42,158.177L90.42,120.675L122.349,101.924ZM122.349,103.669L91.92,121.54L91.92,157.312L122.349,175.183L152.778,157.312L152.778,121.54L122.349,103.669Z" style="fill:rgb(205,180,130);"/>
                        </g>
                        <g transform="matrix(1,0,0,-1,0,280.021)">
                            <path d="M90.57,116.472L90.57,111.693L111.417,99.537C113.117,102.939 116.013,105.721 119.546,105.6" style="fill:none;stroke:rgb(205,180,130);stroke-width:1.62px;"/>
                            <g transform="matrix(-1,0,0,1,239.287,0)">
                                <path d="M90.57,116.587L90.57,111.877L111.613,99.537C113.313,102.939 116.149,105.7 119.741,105.6" style="fill:none;stroke:rgb(205,180,130);stroke-width:1.62px;"/>
                            </g>
                        </g>
                        <g>
                            <path d="M90.57,116.867L90.57,112.077L111.436,99.932C113.135,103.334 115.982,105.652 119.546,105.6" style="fill:none;stroke:rgb(205,180,130);stroke-width:1.62px;"/>
                            <g transform="matrix(-1,0,0,1,239.287,0)">
                                <path d="M90.57,116.867L90.57,112.224L111.603,99.932C113.303,103.334 115.964,105.637 119.546,105.6" style="fill:none;stroke:rgb(205,180,130);stroke-width:1.62px;"/>
                            </g>
                        </g>
                    </g>
                    <g transform="matrix(0.294927,-1.99902e-33,0,-0.294927,219.986,169.954)">
                        <path d="M45.574,25.695L0.027,51.371L0.016,65.789L0,80.207L11.25,86.379L11.25,116.738L7.109,121.316L2.965,125.895L3.172,139.184L3.375,152.473L21,162.457C30.695,167.945 38.879,172.449 39.188,172.465L39.75,172.496L39.75,137.621C39.75,118.437 39.949,102.746 40.191,102.746C40.434,102.746 42.793,103.953 45.434,105.43L50.234,108.117L50.43,145.668L50.625,183.223L85.875,203.207L86.07,166.102C86.176,145.691 86.176,112.246 86.07,91.773L85.875,54.551L70.277,69.273C61.695,77.371 54.539,83.996 54.375,83.996C54.082,83.996 56.328,79.121 65.926,58.945C68.457,53.625 70.402,49.148 70.246,48.992C70.094,48.84 60.391,50.723 48.684,53.18C36.98,55.637 27.32,57.566 27.223,57.469C27,57.246 91.746,22.824 92.086,22.984C94.863,24.285 156.648,57.348 156.523,57.469C156.43,57.566 146.766,55.641 135.055,53.191C123.34,50.742 113.637,48.859 113.488,49.008C113.27,49.227 128.199,81.34 129.492,83.434C130.645,85.301 127.406,82.441 113.465,69.281L97.875,54.566L97.68,91.781C97.574,112.246 97.574,145.691 97.68,166.102L97.875,203.207L133.125,183.223L133.32,145.668L133.516,108.117L138.316,105.43C140.957,103.953 143.316,102.746 143.559,102.746C143.801,102.746 144,118.437 144,137.621C144,156.801 144.199,172.496 144.441,172.496C144.684,172.496 152.785,168.035 162.441,162.582L180,152.668L180,125.078L172.5,116.875L172.5,86.352L183.75,80.141L183.73,65.754L183.711,51.371L138.117,25.684C113.039,11.555 92.207,0 91.824,0.008C91.438,0.012 70.629,11.57 45.578,25.695L45.574,25.695Z" style="fill:rgb(159,169,179);fill-rule:nonzero;"/>
                    </g>
                </g>
            </g>
        </g>
    </g>
</svg>
