<?xml version="1.0" encoding="UTF-8" standalone="no"?>
<!DOCTYPE svg PUBLIC "-//W3C//DTD SVG 1.1//EN" "http://www.w3.org/Graphics/SVG/1.1/DTD/svg11.dtd">
<svg width="100%" height="100%" viewBox="0 0 564 578" version="1.1" xmlns="http://www.w3.org/2000/svg" xmlns:xlink="http://www.w3.org/1999/xlink" xml:space="preserve" xmlns:serif="http://www.serif.com/" style="fill-rule:evenodd;clip-rule:evenodd;stroke-linejoin:round;stroke-miterlimit:2;">
    <g transform="matrix(1,0,0,1,0,-1309)">
        <g transform="matrix(3.21571,0,0,4.32186,1514.41,1452.99)">
            <rect id="Common" x="-470.942" y="-33.24" width="175.271" height="133.568" style="fill:none;"/>
            <g id="Common1" serif:id="Common">
                <g transform="matrix(0.310973,0,0,0.231382,-1254.69,-183.267)">
                    <path d="M2625.73,815.692C2664.36,759.671 2728.98,722.924 2802.11,722.924C2832.5,722.924 2861.42,729.268 2887.61,740.704C2795.67,738.213 2713.42,823.551 2709.47,916.837C2708.04,950.616 2716.62,985.511 2738.72,1017.5C2698.25,998.461 2662.41,973.736 2638.29,944.887C2621.16,924.385 2610.08,901.844 2608.54,877.752C2607.27,857.862 2612.59,837.087 2625.73,815.692ZM2972.37,807.261C2999.87,843.276 3016.22,888.259 3016.22,937.029C3016.22,1044.82 2936.4,1134.11 2832.69,1148.96C2836.67,1143.53 2840.05,1137.63 2842.67,1131.45C2854.43,1103.62 2851.21,1071.6 2820.1,1052.37C2818.19,1051.19 2816.32,1050 2814.48,1048.79C2812.59,1046.02 2809.75,1043.87 2806.28,1042.86C2806.06,1042.8 2805.85,1042.74 2805.63,1042.67C2756.67,1007.03 2737.6,961.748 2739.44,918.106C2742.73,840.487 2810.3,768.615 2886.81,770.694C2915.19,771.465 2944.59,782.669 2972.37,807.261ZM2783.64,1150.35C2674.1,1140.97 2588,1048.97 2588,937.029C2588,931.71 2588.2,926.436 2588.58,921.214C2594.88,936.194 2603.93,950.556 2615.28,964.127C2654.52,1011.08 2721.84,1048.72 2792.29,1070.01C2796.15,1072.69 2800.16,1075.32 2804.33,1077.89C2820.68,1088 2821.22,1105.14 2815.03,1119.77C2808.94,1134.18 2796.83,1147.29 2783.64,1150.35Z" style="fill:rgb(169,168,166);"/>
                </g>
            </g>
        </g>
    </g>
</svg>
