<?xml version="1.0" encoding="UTF-8" standalone="no"?>
<!DOCTYPE svg PUBLIC "-//W3C//DTD SVG 1.1//EN" "http://www.w3.org/Graphics/SVG/1.1/DTD/svg11.dtd">
<svg width="100%" height="100%" viewBox="0 0 24 24" version="1.1" xmlns="http://www.w3.org/2000/svg" xmlns:xlink="http://www.w3.org/1999/xlink" xml:space="preserve" xmlns:serif="http://www.serif.com/" style="fill-rule:evenodd;clip-rule:evenodd;stroke-linejoin:round;stroke-miterlimit:2;">
    <path d="M12,22C10.617,22 9.317,21.738 8.1,21.212C6.883,20.688 5.825,19.975 4.925,19.075C4.025,18.175 3.313,17.117 2.788,15.9C2.263,14.683 2,13.383 2,12L4,12C4,13.917 4.604,15.608 5.813,17.075C7.021,18.542 8.567,19.467 10.45,19.85L9,18.4L10.4,17L14.95,21.55C14.467,21.717 13.979,21.833 13.488,21.9C12.996,21.967 12.5,22 12,22ZM12.5,15L12.5,9L15.5,9C15.783,9 16.021,9.096 16.213,9.288C16.404,9.479 16.5,9.717 16.5,10L16.5,14C16.5,14.283 16.404,14.521 16.213,14.713C16.021,14.904 15.783,15 15.5,15L12.5,15ZM7.5,15L7.5,13.5L10,13.5L10,12.5L8.5,12.5L8.5,11.5L10,11.5L10,10.5L7.5,10.5L7.5,9L10.5,9C10.783,9 11.021,9.096 11.213,9.288C11.404,9.479 11.5,9.717 11.5,10L11.5,14C11.5,14.283 11.404,14.521 11.213,14.713C11.021,14.904 10.783,15 10.5,15L7.5,15ZM14,13.5L15,13.5L15,10.5L14,10.5L14,13.5ZM20,12C20,10.083 19.396,8.392 18.188,6.925C16.979,5.458 15.433,4.533 13.55,4.15L15,5.6L13.6,7L9.05,2.45C9.533,2.283 10.021,2.167 10.513,2.1C11.004,2.033 11.5,2 12,2C13.383,2 14.683,2.262 15.9,2.787C17.117,3.313 18.175,4.025 19.075,4.925C19.975,5.825 20.688,6.883 21.213,8.1C21.738,9.317 22,10.617 22,12L20,12Z" style="fill-rule:nonzero;"/>
</svg>
